<?xml version="1.0" encoding="utf-8"?>
<svg xmlns="http://www.w3.org/2000/svg" height="80" width="80" viewBox="0 0 128 128">
  <g>
    <path id="path1" transform="rotate(0,64,64) translate(25,28.7671580910683) scale(2.4375,2.4375)  " fill="#01A1A7" d="M19.472763,8.0309457L22.684738,14.454958 19.472763,20.87897 22.202744,20.87897 22.203781,20.87897 25.57579,14.454958 22.363754,8.0309457z M9.1937714,8.0309457L5.9807587,14.454958 9.1937714,20.87897 11.923752,20.87897 8.7107391,14.454958 11.923752,8.0309457z M17.545761,4.8189702L11.602768,24.091983 14.012741,24.091983 19.954758,4.8189702z M9.5147552,0L22.363754,0C23.487778,4.5223715E-08,24.61174,0.32098396,25.093796,1.2849731L31.517746,12.68799C32.160751,13.651979,32.160751,14.774965,31.517746,15.738954L25.093796,27.302981C24.61174,28.266971,23.487778,28.908999,22.363754,28.908999L9.5147552,28.908999C8.3917694,28.908999,7.2667694,28.266971,6.7847748,27.302981L0.36076355,15.738954C-0.12025452,14.774965,-0.12025452,13.651979,0.36076355,12.68799L6.7847748,1.4459838C7.2667694,0.32196052,8.3917694,4.5223715E-08,9.5147552,0z" />
  </g>
</svg>